<svg xmlns="http://www.w3.org/2000/svg" fill="none" viewBox="0 0 459 90" aria-hidden="true" focusable="false" role="none"><g fill="#13AA65" clip-path="url(#:r0:)"><path d="M93.24 48.095C93.24 21.532 72.355 0 46.62 0 20.887 0 0 21.544 0 48.095c-.009 8.444 2.149 16.74 6.254 24.047h80.734c4.103-7.307 6.26-15.603 6.251-24.047zM135.361 18.719h10.286V40.32h22.645V18.72h10.283v53.436h-10.283V50.398h-22.645v21.757h-10.286V18.719zM220.048 56.875h-25.824c.813 5.267 5.476 6.948 9.471 6.948 4.145 0 7.772-1.681 10.215-5.117l6.14 6.26c-4.07 5.192-9.838 8.016-16.426 8.016-9.917 0-19.683-6.487-19.683-20.001 0-13.348 9.546-20.305 19.091-20.305 9.105 0 17.318 6.414 17.318 19.314a44.543 44.543 0 01-.302 4.885zm-17.386-15.418c-4.74 0-7.845 3.127-8.438 7.555h16.571c-.438-4.885-3.702-7.555-8.133-7.555zM299.376 38.858v-20.14h10.065v53.437h-9.987V67.42c-2.665 3.36-6.436 5.573-11.763 5.573-9.473 0-18.871-6.79-18.871-20.228 0-13.348 9.173-20.078 18.423-20.078 5.401-.011 9.768 2.202 12.133 6.17zm-.072 13.968c0-8.397-5.403-11.449-10.358-11.449-5.775 0-10.138 4.045-10.138 11.374 0 7.098 4.218 11.526 10.285 11.526 5.548.003 10.211-3.74 10.211-11.449v-.002zM357.161 57.18l7.327-23.508h11.175l-13.847 38.472h-9.533l-8.141-22.52-8.065 22.52h-9.534l-13.688-38.472h11.098l7.326 23.431 7.992-23.431h9.761l8.129 23.509zM459.002 70.703c0 12.593-9.623 19.307-19.535 19.307-8.438 0-16.206-4.805-18.651-13.968l9.033-3.358c1.253 5.88 5.4 8.477 9.988 8.477 5.255 0 9.25-3.208 9.25-9.697v-5.571c-2.145 3.662-6.436 5.875-10.506 5.875-7.77 0-15.17-5.19-15.17-15.648V33.68h10.063v21.075c0 4.885 2.445 8.243 7.264 8.243 5.103 0 8.212-4.046 8.212-10.456V33.687h10.066l-.014 37.016zM253.96 33.671v4.653c-2.297-3.89-6.295-5.648-11.102-5.648-9.534 0-19.311 6.948-19.311 20.373 0 12.826 9.025 19.923 18.35 19.923 5.221 0 9.487-2.262 12.063-5.465v4.627h9.988V33.671h-9.988zm-10.669 30.38c-5.255 0-9.761-4.274-9.761-11.222 0-7.098 4.658-11.372 9.988-11.372 5.403 0 10.138 4.349 10.138 11.22.004 7.022-4.951 11.373-10.353 11.373h-.012zM405.528 33.671v4.653c-2.295-3.89-6.292-5.648-11.1-5.648-9.534 0-19.311 6.948-19.311 20.373 0 12.826 9.026 19.923 18.351 19.923 5.221 0 9.486-2.262 12.06-5.465v4.627h9.988V33.671h-9.988zm-10.655 30.38c-5.255 0-9.761-4.274-9.761-11.222 0-7.098 4.658-11.372 9.988-11.372 5.402 0 10.138 4.349 10.138 11.22-.007 7.022-4.972 11.373-10.365 11.373z"></path></g><defs><clipPath id=":r0:"><path fill="#fff" d="M0 0H459V90H0z"></path></clipPath></defs></svg>